<svg xmlns="http://www.w3.org/2000/svg" width="1728" viewBox="0 0 1728 864" height="864" version="1.0"><defs><clipPath id="a"><path d="M 727.742188 248.511719 L 1209.992188 248.511719 L 1209.992188 615.261719 L 727.742188 615.261719 Z M 727.742188 248.511719"/></clipPath></defs><path fill="#FFF" d="M-172.8 -86.4H1900.8V950.4H-172.8z"/><path fill="#FFF" d="M-172.8 -86.4H1900.8V950.4H-172.8z"/><path fill="#333652" d="M-172.8 -86.4H1900.8V950.4H-172.8z"/><g fill="#FFF"><g><g><path d="M 49.679688 3.261719 L 52.441406 3.011719 L 54.199219 2.761719 L 56.957031 2.761719 L 58.714844 2.507812 L 60.972656 2.761719 L 62.726562 2.507812 L 65.992188 1.503906 L 67.996094 1.253906 L 71.761719 0 L 73.265625 -1.003906 L 76.277344 -1.757812 L 78.535156 -3.511719 L 81.046875 -5.019531 L 83.050781 -6.773438 L 84.308594 -7.777344 L 86.3125 -10.035156 L 87.570312 -11.039062 L 88.824219 -13.550781 L 90.328125 -14.554688 L 92.585938 -18.820312 L 93.839844 -22.332031 L 94.34375 -24.589844 L 94.84375 -26.597656 L 95.847656 -29.859375 L 95.847656 -33.621094 L 96.101562 -35.128906 L 96.851562 -38.640625 L 96.851562 -45.667969 L 97.105469 -47.421875 L 96.851562 -49.179688 L 97.105469 -50.683594 L 97.355469 -54.199219 L 96.851562 -55.703125 L 95.597656 -59.96875 L 95.347656 -61.726562 L 95.097656 -63.730469 L 94.84375 -65.488281 L 93.339844 -70.757812 L 91.835938 -74.019531 L 89.828125 -79.039062 L 89.574219 -80.292969 L 87.316406 -83.050781 L 85.5625 -87.316406 L 82.550781 -90.328125 L 81.296875 -92.585938 L 79.039062 -95.097656 L 78.285156 -96.351562 L 77.03125 -97.105469 L 76.277344 -98.609375 L 73.769531 -100.617188 L 72.261719 -101.621094 L 71.257812 -102.875 L 70.253906 -104.882812 L 69 -106.136719 L 67.996094 -107.640625 L 64.734375 -111.65625 L 61.976562 -115.167969 L 60.21875 -118.429688 L 59.214844 -120.4375 L 57.207031 -123.953125 L 55.453125 -128.71875 L 55.199219 -130.476562 L 55.199219 -133.738281 L 55.453125 -137.25 L 56.203125 -139.757812 L 56.457031 -141.515625 L 57.460938 -144.023438 L 58.210938 -145.78125 L 59.464844 -147.539062 L 62.226562 -148.792969 L 65.238281 -149.796875 L 68.5 -149.292969 L 71.007812 -147.285156 L 73.265625 -145.027344 L 74.019531 -143.523438 L 74.519531 -140.511719 L 74.519531 -134.742188 L 73.769531 -126.960938 L 73.265625 -124.953125 L 73.519531 -121.691406 L 75.523438 -119.9375 L 79.039062 -119.9375 L 82.550781 -119.6875 L 96.601562 -119.6875 L 101.117188 -119.9375 L 104.128906 -121.441406 L 105.132812 -126.960938 L 106.136719 -133.988281 L 106.386719 -138.253906 L 106.136719 -143.273438 L 106.136719 -148.792969 L 104.632812 -154.8125 L 103.878906 -156.570312 L 103.375 -159.332031 L 102.371094 -160.835938 L 100.617188 -163.59375 L 99.863281 -164.851562 L 97.355469 -167.609375 L 96.601562 -168.613281 L 93.839844 -171.125 L 91.835938 -171.875 L 90.078125 -173.382812 L 87.066406 -174.886719 L 86.0625 -175.640625 L 84.308594 -175.890625 L 80.042969 -177.144531 L 76.277344 -177.394531 L 74.019531 -177.898438 L 72.261719 -177.898438 L 65.992188 -178.148438 L 58.210938 -178.148438 L 53.945312 -176.894531 L 49.179688 -175.890625 L 46.417969 -174.386719 L 42.40625 -172.878906 L 37.886719 -169.617188 L 34.878906 -167.109375 L 33.371094 -165.601562 L 31.867188 -163.09375 L 31.113281 -162.089844 L 29.105469 -159.832031 L 28.351562 -158.578125 L 27.601562 -156.820312 L 26.597656 -154.8125 L 25.089844 -151.550781 L 24.839844 -149.042969 L 24.085938 -146.535156 L 23.085938 -144.777344 L 22.832031 -141.265625 L 22.082031 -139.507812 L 21.578125 -134.488281 L 21.578125 -127.214844 L 21.328125 -125.457031 L 21.578125 -123.449219 L 21.828125 -120.1875 L 22.832031 -116.925781 L 23.335938 -114.917969 L 24.085938 -113.160156 L 25.34375 -111.40625 L 26.347656 -109.148438 L 27.851562 -105.382812 L 29.355469 -102.875 L 30.613281 -101.117188 L 33.121094 -99.109375 L 35.628906 -96.351562 L 37.886719 -93.089844 L 40.898438 -89.828125 L 43.660156 -86.566406 L 44.664062 -85.058594 L 45.917969 -83.804688 L 48.675781 -80.542969 L 49.933594 -78.535156 L 51.6875 -76.78125 L 52.441406 -75.523438 L 52.941406 -74.269531 L 53.945312 -72.765625 L 55.703125 -69.253906 L 57.710938 -66.242188 L 59.71875 -62.726562 L 60.46875 -58.964844 L 60.46875 -57.460938 L 61.472656 -52.941406 L 61.472656 -48.929688 L 61.726562 -45.414062 L 61.726562 -43.660156 L 61.472656 -41.148438 L 60.972656 -38.140625 L 59.96875 -35.128906 L 58.964844 -33.371094 L 57.710938 -31.113281 L 56.457031 -29.859375 L 53.695312 -29.105469 L 51.6875 -28.605469 L 49.429688 -28.605469 L 46.167969 -29.355469 L 43.660156 -31.867188 L 41.902344 -35.628906 L 41.148438 -38.140625 L 40.648438 -43.660156 L 40.648438 -48.929688 L 40.898438 -50.683594 L 40.898438 -59.96875 L 38.890625 -63.480469 L 35.628906 -63.730469 L 21.578125 -63.730469 L 18.566406 -63.984375 L 12.546875 -63.480469 L 9.03125 -61.726562 L 8.28125 -57.710938 L 7.777344 -55.953125 L 7.527344 -53.945312 L 7.027344 -50.183594 L 7.277344 -48.425781 L 7.027344 -44.160156 L 7.027344 -36.632812 L 7.527344 -32.617188 L 7.777344 -31.113281 L 8.53125 -27.601562 L 8.78125 -26.09375 L 10.539062 -21.578125 L 11.039062 -19.570312 L 12.796875 -15.304688 L 15.054688 -11.792969 L 17.5625 -8.78125 L 20.074219 -5.519531 L 23.085938 -3.511719 L 25.59375 -1.757812 L 28.351562 -0.753906 L 32.367188 1.003906 L 34.125 1.503906 L 36.632812 2.007812 L 39.394531 2.507812 L 41.902344 2.507812 L 43.660156 2.761719 Z M 49.679688 3.261719" transform="translate(136.916 513.547)"/></g></g></g><g fill="#FFF"><g><g><path d="M 54.449219 1.503906 L 59.464844 1.503906 L 63.230469 1.253906 L 69 1.253906 L 74.019531 0.753906 L 75.523438 0.25 L 77.785156 -0.25 L 80.792969 -1.003906 L 82.300781 -1.503906 L 86.3125 -3.011719 L 87.570312 -4.015625 L 90.578125 -5.269531 L 92.585938 -6.523438 L 94.84375 -7.777344 L 96.851562 -10.289062 L 99.109375 -12.042969 L 100.617188 -14.300781 L 101.621094 -16.558594 L 102.875 -18.316406 L 103.878906 -20.074219 L 105.382812 -23.585938 L 106.386719 -25.089844 L 108.144531 -28.351562 L 108.898438 -31.613281 L 110.152344 -33.121094 L 110.902344 -37.386719 L 111.90625 -40.648438 L 112.910156 -43.660156 L 113.414062 -45.414062 L 113.914062 -46.921875 L 113.914062 -48.675781 L 114.417969 -50.933594 L 115.167969 -53.695312 L 115.671875 -55.453125 L 115.671875 -56.957031 L 116.425781 -60.21875 L 117.425781 -63.230469 L 117.425781 -63.730469 L 118.179688 -67.246094 L 118.429688 -69 L 119.433594 -72.515625 L 120.1875 -75.777344 L 120.691406 -78.785156 L 120.941406 -82.046875 L 121.945312 -84.054688 L 122.445312 -87.570312 L 122.445312 -89.324219 L 123.449219 -92.839844 L 123.699219 -96.351562 L 124.203125 -99.863281 L 124.453125 -101.367188 L 125.207031 -104.882812 L 125.207031 -106.386719 L 125.957031 -110.152344 L 127.714844 -115.671875 L 127.464844 -117.425781 L 127.964844 -119.183594 L 128.21875 -120.691406 L 128.71875 -122.445312 L 128.71875 -124.203125 L 129.472656 -127.214844 L 129.972656 -129.472656 L 130.726562 -131.730469 L 131.226562 -133.988281 L 131.980469 -136.746094 L 131.980469 -138.253906 L 132.984375 -141.265625 L 132.734375 -142.769531 L 133.738281 -146.03125 L 133.988281 -147.789062 L 134.488281 -149.796875 L 134.742188 -151.550781 L 135.746094 -155.066406 L 135.996094 -157.070312 L 136.496094 -160.585938 L 137 -162.59375 L 137.25 -166.355469 L 138.753906 -169.867188 L 138.503906 -173.632812 L 136.496094 -175.640625 L 134.488281 -175.890625 L 132.230469 -175.640625 L 130.476562 -175.386719 L 127.964844 -175.640625 L 126.210938 -175.386719 L 124.203125 -175.386719 L 122.445312 -175.640625 L 120.691406 -175.640625 L 113.414062 -175.386719 L 111.65625 -175.640625 L 109.898438 -175.640625 L 102.371094 -175.386719 L 101.621094 -173.632812 L 101.367188 -171.625 L 100.617188 -168.363281 L 99.863281 -164.851562 L 99.109375 -161.589844 L 98.859375 -160.082031 L 98.609375 -157.070312 L 98.359375 -155.566406 L 97.105469 -152.804688 L 97.355469 -151.050781 L 96.851562 -147.789062 L 96.351562 -144.273438 L 95.597656 -140.761719 L 95.347656 -138.753906 L 94.84375 -135.242188 L 94.59375 -133.234375 L 93.589844 -129.722656 L 93.839844 -126.960938 L 92.335938 -124.453125 L 92.335938 -120.941406 L 92.085938 -119.6875 L 91.582031 -116.171875 L 91.582031 -114.164062 L 90.578125 -110.652344 L 90.328125 -108.644531 L 89.324219 -105.132812 L 88.824219 -102.121094 L 88.070312 -98.859375 L 87.570312 -95.597656 L 87.570312 -93.589844 L 86.3125 -90.078125 L 85.8125 -88.320312 L 85.5625 -85.3125 L 84.558594 -80.792969 L 84.054688 -78.285156 L 83.554688 -75.023438 L 83.304688 -73.265625 L 82.800781 -71.257812 L 82.300781 -69.503906 L 82.046875 -67.246094 L 81.546875 -64.988281 L 81.046875 -63.480469 L 80.792969 -60.972656 L 80.292969 -59.214844 L 79.539062 -55.703125 L 78.285156 -50.683594 L 77.785156 -49.179688 L 77.28125 -46.921875 L 76.027344 -44.410156 L 74.269531 -40.398438 L 73.519531 -38.890625 L 72.011719 -36.882812 L 69.503906 -34.878906 L 63.730469 -34.125 L 58.460938 -34.878906 L 55.703125 -35.628906 L 52.941406 -38.890625 L 52.691406 -41.902344 L 52.691406 -44.664062 L 52.441406 -48.675781 L 52.691406 -50.433594 L 52.941406 -51.9375 L 53.195312 -54.199219 L 53.945312 -60.21875 L 54.699219 -63.480469 L 54.949219 -66.992188 L 55.703125 -72.011719 L 56.957031 -81.046875 L 57.460938 -84.054688 L 58.460938 -87.316406 L 58.460938 -90.578125 L 59.214844 -93.589844 L 59.71875 -95.097656 L 60.21875 -96.851562 L 60.46875 -98.859375 L 60.722656 -101.117188 L 61.726562 -103.375 L 61.222656 -106.636719 L 61.472656 -108.144531 L 62.726562 -111.65625 L 62.726562 -113.414062 L 63.230469 -115.421875 L 63.480469 -117.175781 L 63.730469 -119.6875 L 64.484375 -121.441406 L 64.734375 -122.949219 L 65.238281 -126.710938 L 65.992188 -130.476562 L 66.242188 -132.480469 L 67.496094 -135.996094 L 67.746094 -137.75 L 67.746094 -140.261719 L 67.996094 -142.269531 L 68.5 -145.53125 L 69.503906 -148.539062 L 69.503906 -150.296875 L 70.003906 -151.804688 L 70.253906 -153.558594 L 70.757812 -155.566406 L 71.257812 -157.824219 L 71.761719 -159.582031 L 71.511719 -163.09375 L 72.011719 -164.851562 L 72.515625 -166.355469 L 72.515625 -169.867188 L 72.261719 -173.632812 L 70.003906 -175.386719 L 65.992188 -175.640625 L 63.730469 -175.890625 L 57.710938 -175.386719 L 47.171875 -175.640625 L 44.914062 -175.386719 L 43.660156 -175.386719 L 39.394531 -175.136719 L 37.886719 -174.636719 L 37.386719 -172.628906 L 36.382812 -169.117188 L 35.878906 -165.601562 L 35.378906 -163.09375 L 34.878906 -161.839844 L 33.621094 -158.578125 L 32.871094 -151.550781 L 32.367188 -150.046875 L 32.367188 -148.289062 L 31.613281 -144.777344 L 31.613281 -142.769531 L 31.363281 -140.761719 L 30.613281 -137.25 L 30.359375 -135.242188 L 30.109375 -133.484375 L 28.855469 -130.222656 L 28.605469 -128.71875 L 28.605469 -126.960938 L 28.101562 -123.699219 L 27.601562 -122.195312 L 26.847656 -115.167969 L 26.09375 -113.664062 L 25.84375 -110.152344 L 25.84375 -108.144531 L 24.839844 -104.632812 L 24.085938 -101.367188 L 23.835938 -97.855469 L 22.832031 -94.59375 L 22.832031 -91.332031 L 22.332031 -89.574219 L 21.578125 -86.566406 L 21.328125 -84.808594 L 21.578125 -83.050781 L 20.824219 -80.042969 L 20.574219 -78.535156 L 20.324219 -76.78125 L 19.320312 -73.769531 L 19.320312 -70.507812 L 18.820312 -67.996094 L 18.316406 -64.988281 L 18.066406 -61.222656 L 17.816406 -57.960938 L 16.8125 -51.1875 L 16.308594 -48.929688 L 16.058594 -40.398438 L 15.808594 -38.890625 L 16.8125 -30.359375 L 17.0625 -26.847656 L 18.066406 -22.832031 L 20.074219 -19.320312 L 22.082031 -15.304688 L 22.332031 -14.554688 L 23.585938 -12.546875 L 24.839844 -11.039062 L 26.347656 -9.285156 L 28.855469 -6.773438 L 33.875 -3.765625 L 35.378906 -3.011719 L 37.136719 -2.257812 L 41.402344 -0.753906 L 42.40625 -0.25 L 44.160156 0.25 Z M 54.449219 1.503906" transform="translate(259.362 513.547)"/></g></g></g><g fill="#FFF"><g><g><path d="M 19.570312 0.25 L 39.644531 0.25 L 41.402344 0 L 42.152344 -3.011719 L 42.40625 -5.019531 L 42.65625 -7.277344 L 43.40625 -9.285156 L 43.660156 -11.039062 L 44.160156 -12.546875 L 44.410156 -14.300781 L 44.410156 -16.308594 L 45.414062 -17.816406 L 45.414062 -21.328125 L 46.167969 -25.089844 L 46.167969 -27.601562 L 46.921875 -29.355469 L 47.171875 -31.113281 L 47.925781 -34.125 L 48.425781 -35.878906 L 48.929688 -38.890625 L 49.679688 -41.148438 L 50.433594 -44.664062 L 50.433594 -46.167969 L 50.683594 -47.925781 L 51.1875 -49.429688 L 51.4375 -51.1875 L 51.6875 -52.691406 L 51.9375 -55.953125 L 52.441406 -57.207031 L 52.691406 -60.46875 L 53.445312 -62.476562 L 53.695312 -64.234375 L 53.695312 -64.734375 L 57.460938 -64.484375 L 62.980469 -64.484375 L 67.746094 -64.234375 L 74.773438 -64.734375 L 78.285156 -65.238281 L 81.546875 -65.488281 L 84.558594 -65.992188 L 88.574219 -67.246094 L 91.835938 -68.75 L 94.34375 -69.503906 L 97.855469 -71.257812 L 99.109375 -72.765625 L 102.371094 -75.273438 L 103.628906 -77.03125 L 105.382812 -79.539062 L 107.640625 -81.546875 L 109.398438 -84.558594 L 110.902344 -86.0625 L 113.160156 -89.828125 L 114.917969 -92.839844 L 116.171875 -95.597656 L 118.179688 -100.367188 L 119.433594 -103.878906 L 120.1875 -105.886719 L 120.941406 -109.398438 L 121.441406 -110.902344 L 121.691406 -112.410156 L 122.445312 -114.164062 L 122.695312 -116.171875 L 123.449219 -117.929688 L 123.953125 -121.441406 L 124.453125 -126.960938 L 124.703125 -128.71875 L 125.207031 -131.480469 L 125.457031 -134.238281 L 125.207031 -137 L 125.207031 -138.753906 L 124.953125 -142.519531 L 125.207031 -145.027344 L 124.453125 -147.789062 L 124.203125 -149.542969 L 123.953125 -152.304688 L 122.949219 -155.066406 L 122.445312 -156.820312 L 120.941406 -160.082031 L 120.1875 -162.089844 L 118.683594 -163.847656 L 117.175781 -165.855469 L 116.171875 -167.109375 L 113.914062 -169.117188 L 110.652344 -170.871094 L 108.898438 -171.625 L 107.140625 -172.878906 L 105.382812 -173.382812 L 101.367188 -174.132812 L 96.101562 -174.886719 L 92.839844 -175.386719 L 90.832031 -175.386719 L 87.066406 -175.890625 L 83.554688 -175.890625 L 79.789062 -175.640625 L 78.035156 -175.890625 L 61.222656 -175.890625 L 59.71875 -175.640625 L 56.457031 -175.890625 L 53.195312 -175.640625 L 40.144531 -175.640625 L 38.140625 -174.636719 L 37.136719 -171.375 L 36.882812 -169.367188 L 36.132812 -165.855469 L 35.878906 -163.847656 L 35.628906 -162.089844 L 34.625 -158.074219 L 34.125 -156.320312 L 34.125 -154.8125 L 33.875 -153.058594 L 33.371094 -151.300781 L 33.371094 -149.292969 L 32.871094 -147.539062 L 32.617188 -144.527344 L 31.867188 -142.269531 L 31.113281 -138.753906 L 30.613281 -136.746094 L 30.359375 -132.230469 L 30.109375 -130.726562 L 29.355469 -127.464844 L 29.609375 -126.460938 L 29.355469 -123.699219 L 28.351562 -119.6875 L 28.101562 -118.179688 L 27.851562 -114.917969 L 27.097656 -113.160156 L 26.597656 -111.40625 L 26.347656 -108.144531 L 26.347656 -105.132812 L 25.59375 -101.871094 L 24.839844 -97.855469 L 24.339844 -94.09375 L 24.085938 -92.085938 L 23.335938 -88.574219 L 23.085938 -87.066406 L 22.582031 -85.3125 L 22.332031 -83.804688 L 21.828125 -82.046875 L 21.578125 -78.535156 L 21.328125 -76.527344 L 20.574219 -74.773438 L 19.820312 -69.503906 L 19.570312 -65.738281 L 18.820312 -64.234375 L 18.820312 -62.476562 L 18.316406 -60.972656 L 18.316406 -58.210938 L 17.0625 -55.703125 L 17.0625 -54.449219 L 16.8125 -51.4375 L 16.558594 -49.933594 L 15.558594 -46.671875 L 15.054688 -45.164062 L 14.804688 -43.40625 L 14.554688 -40.144531 L 13.800781 -38.640625 L 12.796875 -32.871094 L 12.546875 -31.363281 L 12.292969 -29.609375 L 11.542969 -26.597656 L 11.292969 -24.839844 L 10.539062 -21.578125 L 9.785156 -17.816406 L 9.03125 -14.300781 L 9.03125 -12.796875 L 8.28125 -9.285156 L 8.53125 -7.527344 L 7.777344 -6.023438 L 7.777344 -1.253906 L 9.285156 0 L 13.800781 -0.25 L 15.558594 0 Z M 58.964844 -96.351562 L 59.214844 -98.609375 L 59.96875 -102.121094 L 59.96875 -104.378906 L 61.222656 -110.652344 L 61.726562 -112.910156 L 61.726562 -114.917969 L 61.976562 -117.929688 L 62.726562 -121.945312 L 63.230469 -124.453125 L 63.984375 -129.472656 L 64.734375 -132.480469 L 65.238281 -134.238281 L 65.738281 -138.503906 L 65.992188 -141.011719 L 66.492188 -142.269531 L 67.746094 -145.277344 L 69.503906 -145.78125 L 75.273438 -146.03125 L 82.046875 -145.78125 L 84.308594 -145.277344 L 87.066406 -143.273438 L 88.574219 -141.011719 L 89.574219 -138.003906 L 89.574219 -133.738281 L 89.074219 -127.214844 L 88.070312 -120.1875 L 87.066406 -115.921875 L 86.0625 -113.664062 L 85.5625 -111.40625 L 84.308594 -107.894531 L 83.304688 -106.386719 L 81.546875 -103.628906 L 78.785156 -101.117188 L 74.773438 -98.105469 L 73.015625 -97.355469 L 68.25 -96.851562 L 65.488281 -96.351562 Z M 58.964844 -96.351562" transform="translate(409.408 513.547)"/></g></g></g><g fill="#FFF"><g><g><path d="M 36.882812 0.25 L 38.890625 0 L 42.90625 -0.25 L 48.175781 -0.25 L 49.679688 -0.5 L 52.941406 -0.25 L 56.957031 -0.5 L 80.792969 -0.5 L 81.546875 -3.261719 L 82.046875 -5.519531 L 82.300781 -9.785156 L 83.050781 -13.550781 L 83.304688 -15.304688 L 83.804688 -16.8125 L 84.308594 -18.566406 L 84.308594 -21.828125 L 85.3125 -27.347656 L 85.5625 -29.355469 L 86.0625 -32.117188 L 86.3125 -33.121094 L 86.566406 -35.128906 L 84.808594 -35.878906 L 77.785156 -35.628906 L 72.261719 -35.878906 L 68.75 -36.132812 L 53.945312 -36.132812 L 50.433594 -36.632812 L 49.429688 -37.636719 L 49.429688 -39.644531 L 50.433594 -46.167969 L 51.1875 -50.683594 L 51.6875 -52.441406 L 51.9375 -54.949219 L 52.441406 -57.207031 L 53.195312 -59.71875 L 54.199219 -66.742188 L 54.949219 -70.003906 L 55.953125 -72.765625 L 58.210938 -72.765625 L 61.472656 -73.015625 L 64.234375 -73.015625 L 68.5 -72.765625 L 74.773438 -73.015625 L 77.03125 -73.015625 L 80.792969 -73.265625 L 83.304688 -73.265625 L 83.804688 -73.769531 L 84.308594 -77.28125 L 85.058594 -81.296875 L 85.5625 -84.808594 L 86.3125 -86.816406 L 86.3125 -88.574219 L 87.066406 -92.335938 L 87.570312 -94.09375 L 88.320312 -97.605469 L 88.824219 -100.367188 L 88.824219 -102.371094 L 89.324219 -105.382812 L 87.820312 -107.390625 L 85.8125 -107.894531 L 79.289062 -107.894531 L 74.519531 -107.390625 L 65.738281 -107.640625 L 61.222656 -107.640625 L 61.726562 -112.160156 L 62.476562 -114.667969 L 62.226562 -116.675781 L 62.726562 -118.429688 L 63.480469 -121.945312 L 63.984375 -125.457031 L 64.734375 -130.222656 L 64.734375 -132.230469 L 65.488281 -133.738281 L 65.488281 -137.25 L 65.738281 -139.007812 L 66.492188 -142.015625 L 72.515625 -142.269531 L 88.824219 -142.269531 L 91.835938 -142.519531 L 102.371094 -142.519531 L 104.882812 -142.769531 L 105.632812 -146.03125 L 105.886719 -147.539062 L 106.890625 -151.050781 L 106.890625 -153.058594 L 107.640625 -156.820312 L 107.894531 -158.328125 L 108.144531 -160.082031 L 108.898438 -161.839844 L 108.898438 -163.34375 L 109.398438 -169.617188 L 109.398438 -171.125 L 110.152344 -173.882812 L 108.898438 -175.640625 L 106.636719 -175.890625 L 104.128906 -176.140625 L 101.871094 -175.890625 L 96.351562 -175.890625 L 89.074219 -175.640625 L 87.066406 -175.890625 L 81.296875 -176.140625 L 62.476562 -175.890625 L 56.957031 -175.640625 L 54.449219 -175.640625 L 52.441406 -175.890625 L 50.683594 -175.890625 L 47.671875 -175.640625 L 45.917969 -175.890625 L 44.410156 -175.640625 L 40.144531 -175.640625 L 38.140625 -174.132812 L 37.886719 -172.628906 L 37.136719 -171.125 L 36.382812 -168.113281 L 36.882812 -166.355469 L 36.632812 -164.851562 L 36.382812 -161.589844 L 36.132812 -160.082031 L 35.628906 -158.578125 L 35.378906 -155.316406 L 34.878906 -153.558594 L 35.128906 -152.054688 L 34.375 -150.296875 L 34.375 -148.539062 L 33.621094 -147.035156 L 33.121094 -143.523438 L 32.117188 -140.261719 L 31.867188 -138.503906 L 32.117188 -137 L 31.867188 -135.242188 L 31.363281 -133.234375 L 30.359375 -131.730469 L 30.109375 -126.460938 L 29.355469 -124.703125 L 29.105469 -117.679688 L 28.101562 -113.914062 L 27.347656 -110.402344 L 27.601562 -108.898438 L 27.097656 -107.140625 L 26.347656 -105.132812 L 24.839844 -97.605469 L 23.835938 -96.101562 L 23.835938 -94.34375 L 23.585938 -92.585938 L 23.335938 -90.578125 L 22.582031 -88.824219 L 22.082031 -85.058594 L 21.078125 -81.546875 L 21.078125 -77.785156 L 20.074219 -72.515625 L 19.570312 -70.757812 L 18.820312 -66.992188 L 18.566406 -65.238281 L 17.816406 -63.480469 L 17.0625 -60.21875 L 17.3125 -58.714844 L 16.308594 -55.703125 L 16.308594 -54.449219 L 15.808594 -51.1875 L 15.304688 -49.179688 L 15.304688 -47.421875 L 14.804688 -43.40625 L 13.800781 -41.402344 L 13.296875 -38.140625 L 13.046875 -34.625 L 12.796875 -32.871094 L 12.292969 -30.863281 L 12.292969 -29.105469 L 11.792969 -27.347656 L 11.792969 -25.089844 L 11.039062 -23.085938 L 10.789062 -19.070312 L 9.785156 -15.304688 L 9.285156 -11.292969 L 8.78125 -7.527344 L 8.28125 -5.269531 L 7.527344 -3.011719 L 8.28125 -0.753906 L 10.539062 -0.25 L 23.835938 -0.25 L 25.59375 0 L 32.117188 0 Z M 36.882812 0.25" transform="translate(546.908 513.547)"/></g></g></g><g fill="#FFF"><g><g><path d="M 33.121094 0.5 L 35.128906 0.25 L 38.890625 0 L 41.148438 -0.25 L 43.660156 0 L 44.410156 -2.257812 L 45.164062 -4.015625 L 45.414062 -7.027344 L 45.667969 -8.78125 L 45.667969 -10.289062 L 45.917969 -12.042969 L 46.167969 -15.304688 L 46.167969 -16.8125 L 46.671875 -18.566406 L 46.417969 -20.074219 L 47.171875 -23.585938 L 47.171875 -25.59375 L 47.671875 -27.097656 L 47.925781 -29.105469 L 48.929688 -34.375 L 49.429688 -36.382812 L 49.429688 -41.652344 L 50.433594 -43.660156 L 50.933594 -47.171875 L 50.933594 -48.675781 L 51.4375 -52.191406 L 52.691406 -55.453125 L 52.691406 -59.71875 L 53.445312 -64.988281 L 53.695312 -66.992188 L 54.449219 -70.507812 L 54.949219 -72.011719 L 55.199219 -73.015625 L 56.957031 -72.765625 L 57.960938 -71.761719 L 58.964844 -69.753906 L 59.464844 -67.746094 L 60.46875 -65.738281 L 60.972656 -63.230469 L 61.726562 -59.71875 L 62.226562 -58.460938 L 62.476562 -54.949219 L 63.480469 -51.6875 L 63.984375 -48.425781 L 64.484375 -46.671875 L 65.488281 -43.660156 L 65.738281 -41.902344 L 67.246094 -37.386719 L 67.246094 -34.375 L 68.25 -31.867188 L 69 -29.105469 L 69.253906 -27.347656 L 70.003906 -25.84375 L 70.003906 -24.085938 L 70.757812 -22.332031 L 71.257812 -19.070312 L 71.761719 -18.316406 L 72.515625 -16.308594 L 72.515625 -14.300781 L 74.019531 -10.539062 L 74.773438 -7.777344 L 75.273438 -6.523438 L 76.027344 -3.511719 L 76.527344 -2.257812 L 78.785156 0 L 80.292969 0.25 L 82.550781 0 L 84.558594 0 L 87.316406 -0.25 L 90.578125 -0.25 L 97.105469 -1.003906 L 102.371094 -1.757812 L 105.632812 -1.757812 L 108.394531 -2.257812 L 109.648438 -2.507812 L 110.402344 -5.769531 L 108.644531 -10.539062 L 108.144531 -12.796875 L 107.894531 -14.554688 L 107.640625 -17.5625 L 105.886719 -21.828125 L 105.382812 -25.34375 L 102.625 -34.375 L 102.121094 -37.636719 L 100.867188 -41.402344 L 100.867188 -42.90625 L 99.863281 -46.167969 L 99.363281 -48.175781 L 98.609375 -49.933594 L 98.105469 -53.445312 L 97.605469 -54.949219 L 96.851562 -58.210938 L 96.101562 -59.71875 L 95.597656 -62.980469 L 95.347656 -64.988281 L 94.34375 -66.492188 L 93.839844 -69.753906 L 93.839844 -72.011719 L 92.585938 -75.777344 L 91.835938 -77.785156 L 91.835938 -80.042969 L 93.589844 -80.292969 L 97.105469 -82.046875 L 102.121094 -85.3125 L 105.632812 -89.074219 L 106.890625 -90.328125 L 109.648438 -93.589844 L 110.402344 -95.097656 L 112.410156 -98.359375 L 113.414062 -100.617188 L 114.164062 -102.371094 L 116.425781 -105.632812 L 117.679688 -108.644531 L 118.429688 -110.402344 L 118.933594 -111.90625 L 119.433594 -113.664062 L 120.4375 -116.675781 L 121.191406 -119.183594 L 121.691406 -123.199219 L 122.445312 -127.214844 L 122.445312 -128.96875 L 122.195312 -132.734375 L 122.445312 -134.488281 L 123.199219 -138.003906 L 123.199219 -140.011719 L 122.445312 -144.777344 L 122.445312 -146.535156 L 121.945312 -151.300781 L 121.191406 -155.316406 L 119.433594 -158.828125 L 117.679688 -161.839844 L 116.675781 -163.09375 L 115.421875 -164.597656 L 114.417969 -165.601562 L 111.40625 -167.359375 L 110.152344 -168.113281 L 108.644531 -168.863281 L 106.386719 -170.371094 L 104.632812 -170.871094 L 102.371094 -171.875 L 99.613281 -173.128906 L 97.605469 -173.632812 L 93.589844 -173.632812 L 90.832031 -174.132812 L 87.066406 -174.386719 L 83.804688 -174.886719 L 81.546875 -174.886719 L 77.785156 -175.386719 L 75.777344 -175.890625 L 73.265625 -175.640625 L 71.511719 -175.386719 L 60.722656 -175.386719 L 45.667969 -175.640625 L 42.152344 -175.640625 L 39.644531 -175.136719 L 37.886719 -173.128906 L 36.882812 -171.875 L 37.136719 -169.117188 L 36.132812 -167.109375 L 36.132812 -165.101562 L 35.878906 -163.34375 L 35.628906 -161.335938 L 34.625 -154.3125 L 33.875 -150.296875 L 33.121094 -147.285156 L 32.617188 -145.53125 L 32.617188 -144.023438 L 32.367188 -140.761719 L 32.367188 -139.257812 L 32.117188 -137.75 L 31.363281 -134.238281 L 30.613281 -130.222656 L 29.859375 -126.710938 L 29.609375 -125.207031 L 29.355469 -121.691406 L 28.351562 -118.683594 L 28.101562 -117.175781 L 28.101562 -115.421875 L 27.851562 -113.914062 L 27.347656 -110.652344 L 27.097656 -108.898438 L 26.847656 -107.390625 L 26.847656 -105.632812 L 25.59375 -100.367188 L 25.59375 -98.359375 L 25.089844 -94.84375 L 24.589844 -91.582031 L 24.339844 -90.078125 L 23.835938 -87.316406 L 23.335938 -85.5625 L 23.335938 -84.054688 L 22.582031 -82.550781 L 22.082031 -80.792969 L 21.828125 -77.785156 L 22.082031 -76.277344 L 21.578125 -74.773438 L 20.324219 -73.015625 L 20.324219 -70.757812 L 20.074219 -68.75 L 19.820312 -66.992188 L 18.820312 -63.480469 L 18.820312 -61.472656 L 18.566406 -57.710938 L 18.066406 -55.199219 L 18.066406 -52.941406 L 16.8125 -48.425781 L 16.8125 -44.664062 L 15.808594 -42.65625 L 16.058594 -40.648438 L 15.808594 -38.890625 L 15.304688 -36.882812 L 15.054688 -33.371094 L 14.300781 -31.363281 L 14.554688 -29.609375 L 13.800781 -27.601562 L 13.800781 -25.84375 L 13.046875 -22.332031 L 12.796875 -20.574219 L 12.796875 -19.070312 L 12.042969 -17.3125 L 12.042969 -15.558594 L 11.542969 -14.050781 L 11.542969 -12.292969 L 11.292969 -9.535156 L 11.039062 -7.027344 L 10.289062 -4.515625 L 10.289062 -2.257812 L 10.789062 -0.753906 L 13.046875 -0.25 L 20.824219 0.25 L 24.085938 0.25 Z M 65.738281 -102.875 L 61.472656 -103.375 L 61.726562 -105.382812 L 61.472656 -107.140625 L 61.726562 -108.898438 L 62.476562 -112.910156 L 62.980469 -115.167969 L 62.726562 -117.425781 L 63.480469 -119.6875 L 63.984375 -123.449219 L 63.984375 -125.207031 L 64.734375 -129.21875 L 65.238281 -131.226562 L 65.488281 -134.488281 L 65.738281 -138.253906 L 66.242188 -142.269531 L 66.992188 -144.023438 L 67.746094 -146.785156 L 70.003906 -147.539062 L 76.027344 -147.285156 L 81.546875 -146.535156 L 83.804688 -145.277344 L 85.5625 -143.523438 L 86.816406 -141.265625 L 87.570312 -135.996094 L 87.820312 -130.476562 L 87.570312 -126.460938 L 86.816406 -124.453125 L 86.816406 -122.445312 L 85.058594 -118.933594 L 84.808594 -117.425781 L 84.308594 -115.421875 L 83.050781 -112.160156 L 81.296875 -110.652344 L 80.292969 -109.148438 L 78.535156 -107.140625 L 76.78125 -106.136719 L 74.269531 -104.632812 L 72.765625 -103.628906 L 69.753906 -102.875 Z M 65.738281 -102.875" transform="translate(664.085 513.547)"/></g></g></g><g fill="#FFF"><g><g><path d="M 14.554688 0.25 L 24.339844 0.25 L 25.84375 0 L 30.863281 0.25 L 36.882812 -0.25 L 38.640625 -0.5 L 40.398438 -0.25 L 42.90625 -2.007812 L 43.910156 -5.269531 L 44.410156 -8.28125 L 45.164062 -11.292969 L 44.914062 -13.046875 L 45.164062 -14.804688 L 45.164062 -16.308594 L 45.414062 -18.066406 L 46.921875 -21.078125 L 47.171875 -22.832031 L 47.671875 -25.84375 L 48.175781 -29.355469 L 48.175781 -30.863281 L 48.425781 -34.375 L 48.929688 -36.132812 L 48.675781 -37.886719 L 49.679688 -41.148438 L 50.433594 -44.160156 L 51.1875 -47.925781 L 51.9375 -51.1875 L 51.6875 -52.691406 L 52.691406 -55.453125 L 52.941406 -56.707031 L 53.695312 -60.21875 L 54.199219 -63.480469 L 54.699219 -65.992188 L 55.453125 -70.003906 L 61.472656 -69.503906 L 67.246094 -70.003906 L 76.277344 -70.003906 L 79.039062 -69.753906 L 81.546875 -69.753906 L 83.050781 -72.765625 L 83.804688 -76.277344 L 84.808594 -79.539062 L 84.808594 -82.550781 L 85.5625 -85.8125 L 85.8125 -87.570312 L 86.0625 -89.074219 L 86.816406 -92.085938 L 86.816406 -93.339844 L 87.820312 -96.851562 L 87.820312 -98.859375 L 88.574219 -100.867188 L 88.824219 -102.875 L 88.070312 -105.632812 L 84.558594 -105.886719 L 81.796875 -105.886719 L 78.285156 -105.632812 L 75.273438 -105.382812 L 64.234375 -105.632812 L 61.472656 -105.886719 L 62.226562 -108.394531 L 62.726562 -111.40625 L 62.726562 -113.160156 L 62.980469 -114.667969 L 63.480469 -116.425781 L 63.480469 -118.429688 L 64.484375 -120.4375 L 65.488281 -126.460938 L 65.488281 -127.714844 L 66.242188 -131.226562 L 66.992188 -134.992188 L 67.246094 -136.746094 L 67.496094 -139.507812 L 67.996094 -141.515625 L 70.507812 -141.515625 L 80.792969 -141.765625 L 87.316406 -142.015625 L 90.832031 -141.765625 L 95.597656 -141.265625 L 99.613281 -141.765625 L 101.871094 -141.515625 L 104.128906 -142.769531 L 104.882812 -148.039062 L 105.886719 -152.554688 L 105.886719 -154.3125 L 106.136719 -155.816406 L 106.890625 -159.078125 L 107.640625 -163.34375 L 107.640625 -164.597656 L 108.144531 -167.859375 L 108.144531 -170.621094 L 108.644531 -172.378906 L 107.894531 -174.386719 L 104.632812 -175.386719 L 101.621094 -175.386719 L 97.605469 -175.640625 L 68.25 -175.640625 L 61.726562 -175.890625 L 52.691406 -176.140625 L 40.398438 -175.640625 L 37.386719 -174.386719 L 36.882812 -171.375 L 36.632812 -169.617188 L 36.882812 -166.605469 L 36.382812 -165.351562 L 35.878906 -162.089844 L 34.878906 -157.574219 L 34.878906 -155.566406 L 33.875 -153.808594 L 33.621094 -151.050781 L 33.371094 -147.789062 L 33.121094 -145.78125 L 32.617188 -144.273438 L 31.867188 -141.011719 L 31.613281 -137.5 L 30.863281 -135.996094 L 30.863281 -134.238281 L 29.609375 -130.222656 L 29.355469 -128.46875 L 29.355469 -126.710938 L 29.105469 -124.953125 L 29.355469 -123.449219 L 28.855469 -120.1875 L 28.351562 -118.429688 L 27.851562 -114.917969 L 27.097656 -113.160156 L 26.597656 -109.648438 L 26.597656 -106.636719 L 25.84375 -103.628906 L 25.34375 -101.871094 L 24.339844 -98.859375 L 23.335938 -95.597656 L 23.085938 -92.335938 L 22.332031 -88.824219 L 22.332031 -87.066406 L 21.328125 -83.804688 L 20.324219 -76.78125 L 20.324219 -73.265625 L 19.570312 -71.511719 L 19.070312 -67.746094 L 19.320312 -65.992188 L 18.566406 -61.976562 L 17.3125 -58.460938 L 16.8125 -55.199219 L 16.8125 -51.6875 L 15.808594 -48.675781 L 15.808594 -46.921875 L 15.304688 -45.414062 L 15.304688 -43.40625 L 14.554688 -41.148438 L 14.300781 -37.636719 L 13.800781 -36.132812 L 13.800781 -33.875 L 12.796875 -31.363281 L 11.792969 -27.851562 L 11.542969 -25.84375 L 11.292969 -22.582031 L 11.039062 -20.824219 L 10.789062 -19.320312 L 9.785156 -17.3125 L 9.285156 -14.554688 L 9.03125 -12.796875 L 8.78125 -11.292969 L 9.03125 -7.777344 L 8.027344 -5.769531 L 8.027344 -3.011719 L 9.03125 -0.5 L 12.042969 0 Z M 14.554688 0.25" transform="translate(1080.602 513.547)"/></g></g></g><g fill="#FFF"><g><g><path d="M 11.039062 0.25 L 14.300781 0 L 16.058594 0.25 L 23.085938 0.25 L 25.59375 0 L 46.167969 0 L 51.1875 -0.25 L 54.699219 0.25 L 58.460938 0 L 62.980469 0.25 L 68.5 -0.5 L 71.761719 -1.003906 L 76.527344 -1.003906 L 78.535156 -2.761719 L 79.539062 -6.773438 L 80.042969 -10.539062 L 80.292969 -12.042969 L 80.292969 -13.800781 L 81.046875 -15.558594 L 82.300781 -24.339844 L 83.050781 -26.347656 L 82.800781 -28.101562 L 83.304688 -29.859375 L 83.554688 -33.621094 L 82.046875 -34.375 L 75.523438 -34.375 L 70.003906 -34.125 L 56.957031 -34.125 L 54.699219 -34.375 L 52.191406 -34.375 L 50.933594 -35.628906 L 50.933594 -38.140625 L 51.4375 -40.648438 L 51.6875 -43.40625 L 52.191406 -45.164062 L 52.441406 -46.671875 L 52.691406 -48.425781 L 52.691406 -50.933594 L 53.195312 -53.195312 L 53.445312 -56.457031 L 54.449219 -59.71875 L 54.699219 -63.230469 L 55.199219 -65.238281 L 55.199219 -66.992188 L 56.203125 -71.007812 L 56.457031 -72.765625 L 56.707031 -74.773438 L 57.460938 -78.285156 L 57.710938 -82.046875 L 58.714844 -86.0625 L 58.964844 -87.820312 L 59.71875 -91.582031 L 60.21875 -93.339844 L 60.21875 -96.851562 L 60.722656 -98.609375 L 61.472656 -103.878906 L 61.472656 -105.886719 L 61.976562 -107.640625 L 61.726562 -109.648438 L 62.726562 -111.40625 L 63.480469 -114.667969 L 64.234375 -118.179688 L 64.734375 -119.9375 L 64.988281 -121.691406 L 65.488281 -123.699219 L 64.988281 -125.707031 L 65.992188 -127.464844 L 66.492188 -130.976562 L 67.496094 -134.488281 L 67.496094 -136.496094 L 68.25 -140.011719 L 70.253906 -148.792969 L 70.757812 -151.300781 L 71.257812 -154.0625 L 72.011719 -159.332031 L 72.515625 -160.835938 L 72.515625 -162.59375 L 74.019531 -168.613281 L 74.019531 -170.371094 L 74.269531 -172.125 L 73.519531 -175.136719 L 68.5 -175.386719 L 58.714844 -175.386719 L 49.429688 -175.640625 L 43.40625 -175.640625 L 39.394531 -175.136719 L 38.640625 -173.632812 L 37.386719 -168.613281 L 36.882812 -167.109375 L 36.882812 -165.351562 L 36.632812 -162.339844 L 35.628906 -159.332031 L 34.878906 -155.316406 L 34.625 -151.300781 L 33.621094 -149.542969 L 33.621094 -148.039062 L 33.371094 -146.28125 L 33.371094 -144.527344 L 32.367188 -143.019531 L 31.867188 -140.261719 L 31.613281 -137 L 31.113281 -134.992188 L 31.613281 -133.234375 L 31.113281 -131.226562 L 30.109375 -127.714844 L 29.355469 -125.707031 L 29.609375 -123.699219 L 28.855469 -118.429688 L 28.351562 -115.421875 L 28.351562 -113.664062 L 27.097656 -110.402344 L 27.097656 -106.890625 L 26.847656 -104.882812 L 25.59375 -101.621094 L 25.089844 -98.609375 L 24.589844 -95.347656 L 23.085938 -88.320312 L 23.085938 -87.066406 L 22.082031 -83.554688 L 21.078125 -76.027344 L 19.820312 -72.515625 L 19.820312 -70.757812 L 18.820312 -67.246094 L 18.820312 -65.738281 L 18.566406 -63.984375 L 18.316406 -62.476562 L 18.316406 -58.964844 L 17.816406 -57.460938 L 17.3125 -53.945312 L 17.0625 -52.441406 L 17.0625 -50.933594 L 16.308594 -49.179688 L 15.558594 -45.917969 L 15.808594 -44.410156 L 15.054688 -42.65625 L 14.554688 -41.148438 L 13.296875 -37.636719 L 13.296875 -34.625 L 12.796875 -32.367188 L 12.292969 -29.105469 L 12.042969 -27.601562 L 12.042969 -25.84375 L 11.039062 -22.582031 L 11.039062 -18.820312 L 10.035156 -15.558594 L 9.785156 -14.050781 L 9.535156 -12.292969 L 8.78125 -9.785156 L 7.777344 -7.277344 L 7.527344 -5.769531 L 7.777344 -4.265625 L 8.027344 -2.507812 L 9.03125 -1.003906 Z M 11.039062 0.25" transform="translate(1194.768 513.547)"/></g></g></g><g fill="#FFF"><g><g><path d="M 34.625 0.5 L 41.148438 0.5 L 43.910156 -0.25 L 44.664062 -2.507812 L 44.914062 -4.515625 L 45.667969 -7.777344 L 46.167969 -11.292969 L 46.921875 -14.554688 L 47.925781 -20.574219 L 48.675781 -23.335938 L 48.675781 -25.089844 L 49.179688 -28.351562 L 49.679688 -31.867188 L 50.433594 -35.378906 L 50.433594 -37.386719 L 51.4375 -40.648438 L 51.6875 -42.65625 L 52.441406 -46.417969 L 52.191406 -49.179688 L 53.445312 -51.6875 L 53.445312 -55.199219 L 53.695312 -56.457031 L 54.199219 -59.96875 L 54.199219 -61.976562 L 55.199219 -65.488281 L 55.199219 -67.496094 L 56.203125 -71.007812 L 56.707031 -74.019531 L 57.207031 -77.28125 L 57.960938 -80.542969 L 57.960938 -82.550781 L 58.714844 -84.308594 L 59.71875 -87.820312 L 60.972656 -95.347656 L 61.726562 -97.855469 L 62.226562 -101.117188 L 62.226562 -102.875 L 62.476562 -104.882812 L 62.726562 -106.636719 L 62.726562 -108.898438 L 63.480469 -111.15625 L 64.234375 -114.667969 L 64.484375 -115.921875 L 65.238281 -119.183594 L 65.992188 -122.195312 L 66.492188 -125.457031 L 66.742188 -127.214844 L 66.992188 -130.222656 L 67.246094 -131.980469 L 67.746094 -134.992188 L 68.25 -136.496094 L 68.75 -139.257812 L 70.003906 -145.78125 L 70.253906 -147.285156 L 70.253906 -149.042969 L 70.507812 -150.546875 L 70.507812 -152.554688 L 71.511719 -154.8125 L 72.011719 -158.328125 L 72.765625 -159.582031 L 72.765625 -161.839844 L 73.519531 -162.84375 L 73.265625 -164.347656 L 73.519531 -167.109375 L 74.019531 -167.859375 L 74.019531 -171.125 L 74.269531 -172.628906 L 73.265625 -175.136719 L 70.507812 -175.890625 L 68.75 -175.640625 L 55.453125 -175.640625 L 53.695312 -175.386719 L 50.183594 -175.386719 L 47.925781 -175.640625 L 44.160156 -175.386719 L 42.40625 -175.136719 L 40.898438 -174.132812 L 39.140625 -173.382812 L 37.386719 -170.871094 L 37.136719 -169.117188 L 36.632812 -167.609375 L 36.132812 -163.847656 L 35.128906 -161.085938 L 34.625 -158.328125 L 34.375 -155.316406 L 33.875 -153.808594 L 33.621094 -152.304688 L 32.871094 -149.042969 L 32.367188 -145.53125 L 31.867188 -144.273438 L 31.613281 -141.011719 L 31.363281 -139.007812 L 31.613281 -137.25 L 30.613281 -133.988281 L 30.359375 -132.230469 L 29.609375 -128.96875 L 29.355469 -127.464844 L 28.351562 -124.453125 L 28.605469 -122.695312 L 28.351562 -121.191406 L 27.851562 -117.679688 L 27.097656 -115.921875 L 27.097656 -112.410156 L 26.347656 -107.140625 L 25.089844 -103.628906 L 24.339844 -100.367188 L 23.835938 -97.355469 L 23.835938 -94.09375 L 22.832031 -92.085938 L 22.332031 -88.574219 L 22.332031 -86.816406 L 21.328125 -83.304688 L 21.328125 -79.789062 L 20.824219 -76.277344 L 20.574219 -74.773438 L 20.324219 -73.015625 L 19.820312 -71.257812 L 19.820312 -69.753906 L 19.320312 -65.992188 L 17.5625 -60.46875 L 17.816406 -58.714844 L 17.3125 -56.957031 L 17.0625 -55.453125 L 16.558594 -53.695312 L 16.558594 -51.9375 L 16.058594 -48.929688 L 15.558594 -46.671875 L 14.804688 -44.410156 L 14.300781 -42.152344 L 13.550781 -39.394531 L 12.796875 -34.878906 L 13.046875 -33.371094 L 12.042969 -30.109375 L 11.792969 -28.351562 L 11.292969 -26.347656 L 11.039062 -24.589844 L 10.289062 -20.824219 L 10.035156 -18.820312 L 9.535156 -15.304688 L 9.03125 -13.550781 L 8.78125 -9.785156 L 7.527344 -6.273438 L 7.777344 -2.507812 L 9.785156 -0.753906 L 11.792969 -0.25 L 13.800781 -0.5 L 15.558594 -0.25 L 18.316406 0 L 20.074219 -0.25 L 22.082031 -0.25 L 25.59375 0.25 L 32.871094 0.25 Z M 34.625 0.5" transform="translate(1305.671 513.547)"/></g></g></g><g fill="#FFF"><g><g><path d="M 72.765625 0.753906 L 76.78125 0.25 L 82.550781 0.25 L 92.085938 0 L 96.351562 0.25 L 98.105469 0 L 101.367188 0 L 104.632812 -0.5 L 106.386719 -1.757812 L 105.382812 -6.023438 L 104.882812 -7.777344 L 103.628906 -9.535156 L 103.125 -11.292969 L 102.625 -15.304688 L 101.621094 -18.820312 L 100.867188 -20.324219 L 100.367188 -22.582031 L 100.113281 -25.34375 L 99.863281 -26.847656 L 98.359375 -30.109375 L 98.359375 -31.613281 L 97.855469 -33.371094 L 96.851562 -36.632812 L 96.351562 -38.140625 L 95.847656 -39.894531 L 94.84375 -43.660156 L 93.339844 -48.929688 L 92.839844 -50.433594 L 92.335938 -52.691406 L 91.332031 -56.203125 L 90.578125 -59.71875 L 89.828125 -61.726562 L 89.074219 -64.988281 L 88.574219 -66.992188 L 87.820312 -69 L 87.570312 -70.757812 L 87.316406 -72.765625 L 86.3125 -76.027344 L 86.0625 -77.785156 L 85.3125 -81.546875 L 84.308594 -85.8125 L 83.804688 -88.574219 L 84.054688 -90.578125 L 86.3125 -93.589844 L 88.320312 -97.605469 L 89.324219 -99.109375 L 92.085938 -103.878906 L 95.097656 -108.394531 L 96.601562 -110.902344 L 97.855469 -113.664062 L 98.609375 -114.917969 L 100.367188 -117.679688 L 103.125 -122.195312 L 104.378906 -124.953125 L 106.136719 -127.714844 L 106.636719 -129.972656 L 108.394531 -132.734375 L 109.398438 -134.488281 L 110.402344 -135.746094 L 111.90625 -137.75 L 113.160156 -140.261719 L 114.667969 -142.769531 L 115.671875 -145.277344 L 116.425781 -147.035156 L 118.179688 -148.289062 L 118.933594 -150.546875 L 119.6875 -152.054688 L 120.4375 -153.058594 L 122.195312 -156.066406 L 123.449219 -159.078125 L 124.203125 -160.332031 L 125.707031 -162.089844 L 126.460938 -163.59375 L 126.960938 -165.101562 L 127.964844 -166.859375 L 128.46875 -168.363281 L 128.96875 -170.121094 L 130.476562 -172.878906 L 130.222656 -174.636719 L 128.71875 -175.640625 L 123.449219 -175.640625 L 122.195312 -175.136719 L 120.4375 -175.640625 L 115.671875 -175.136719 L 113.914062 -175.136719 L 111.15625 -175.640625 L 108.394531 -175.136719 L 106.386719 -175.640625 L 99.363281 -175.640625 L 95.847656 -174.636719 L 94.84375 -173.382812 L 94.09375 -172.125 L 92.839844 -169.117188 L 91.582031 -167.359375 L 91.332031 -165.601562 L 90.578125 -164.097656 L 89.574219 -162.59375 L 89.074219 -160.835938 L 88.070312 -159.332031 L 86.816406 -156.066406 L 86.0625 -154.5625 L 85.058594 -153.058594 L 84.558594 -151.804688 L 83.554688 -150.296875 L 77.28125 -137.75 L 76.277344 -135.242188 L 75.273438 -133.988281 L 74.773438 -132.480469 L 72.765625 -129.722656 L 71.257812 -126.210938 L 70.003906 -123.199219 L 69.503906 -122.445312 L 68.75 -122.445312 L 68.25 -126.210938 L 67.496094 -128.46875 L 66.992188 -132.230469 L 66.242188 -134.238281 L 65.738281 -137 L 65.238281 -139.507812 L 64.734375 -142.269531 L 63.730469 -144.023438 L 63.230469 -146.03125 L 62.980469 -147.789062 L 62.476562 -151.550781 L 61.472656 -153.558594 L 61.222656 -155.066406 L 60.21875 -158.828125 L 60.21875 -160.332031 L 59.71875 -162.089844 L 59.464844 -163.59375 L 58.460938 -167.359375 L 57.710938 -169.117188 L 57.207031 -172.125 L 56.707031 -174.386719 L 55.453125 -175.136719 L 52.441406 -175.136719 L 50.683594 -175.386719 L 47.171875 -175.386719 L 44.914062 -175.136719 L 42.40625 -175.640625 L 38.890625 -175.640625 L 35.878906 -175.386719 L 24.589844 -175.386719 L 22.582031 -175.136719 L 20.574219 -172.878906 L 20.574219 -171.375 L 20.824219 -169.617188 L 21.578125 -167.609375 L 22.332031 -165.855469 L 23.335938 -162.089844 L 23.835938 -160.332031 L 25.34375 -156.820312 L 26.347656 -153.308594 L 27.347656 -150.046875 L 27.851562 -148.539062 L 28.605469 -145.277344 L 29.105469 -143.773438 L 30.613281 -140.261719 L 31.113281 -138.253906 L 31.867188 -136.496094 L 32.367188 -134.488281 L 33.371094 -130.976562 L 34.125 -129.21875 L 34.625 -127.214844 L 35.628906 -123.699219 L 36.632812 -121.691406 L 37.386719 -119.9375 L 38.140625 -116.425781 L 38.390625 -114.917969 L 39.644531 -111.40625 L 40.144531 -107.640625 L 40.898438 -105.886719 L 42.152344 -102.121094 L 42.40625 -100.367188 L 43.15625 -98.609375 L 44.410156 -94.84375 L 42.152344 -91.332031 L 40.898438 -88.070312 L 40.144531 -86.816406 L 39.394531 -85.3125 L 38.640625 -84.054688 L 36.632812 -81.296875 L 36.132812 -79.789062 L 35.128906 -78.285156 L 34.375 -77.03125 L 32.117188 -72.515625 L 31.363281 -70.757812 L 30.359375 -69.253906 L 29.609375 -67.746094 L 28.101562 -64.484375 L 27.097656 -62.726562 L 26.09375 -61.472656 L 24.085938 -58.460938 L 22.332031 -55.453125 L 21.328125 -54.199219 L 20.574219 -52.691406 L 20.074219 -51.1875 L 18.820312 -49.679688 L 18.316406 -47.925781 L 17.0625 -44.914062 L 16.308594 -43.40625 L 14.050781 -39.140625 L 12.546875 -37.636719 L 12.042969 -36.382812 L 11.039062 -34.878906 L 10.035156 -32.117188 L 9.285156 -30.613281 L 8.78125 -29.105469 L 7.027344 -26.09375 L 6.273438 -24.589844 L 5.269531 -23.085938 L 4.515625 -21.578125 L 3.011719 -18.820312 L 2.257812 -17.3125 L -0.753906 -11.792969 L -2.007812 -8.78125 L -4.015625 -5.519531 L -4.515625 -1.003906 L -1.757812 0 L 2.761719 0 L 6.773438 -0.25 L 10.539062 0 L 14.554688 0 L 17.0625 0.25 L 22.832031 0.25 L 26.347656 0 L 29.105469 -0.25 L 30.613281 -2.507812 L 31.613281 -4.765625 L 32.617188 -6.273438 L 34.125 -9.535156 L 34.878906 -11.542969 L 35.628906 -12.796875 L 37.136719 -15.808594 L 37.636719 -17.3125 L 39.140625 -20.324219 L 39.894531 -22.082031 L 41.652344 -25.089844 L 42.40625 -26.847656 L 44.160156 -29.859375 L 44.914062 -31.363281 L 45.667969 -33.121094 L 49.429688 -39.140625 L 50.183594 -40.398438 L 51.1875 -41.902344 L 51.4375 -43.15625 L 52.441406 -44.664062 L 54.199219 -47.671875 L 56.203125 -51.6875 L 57.207031 -53.195312 L 57.960938 -53.445312 L 58.964844 -50.433594 L 59.464844 -48.175781 L 60.21875 -44.664062 L 60.972656 -42.90625 L 61.222656 -40.648438 L 61.976562 -37.636719 L 62.476562 -36.132812 L 62.980469 -32.871094 L 64.484375 -27.601562 L 65.238281 -24.339844 L 65.992188 -20.824219 L 66.992188 -17.0625 L 67.746094 -12.796875 L 68.5 -11.039062 L 68.75 -9.03125 L 69 -6.023438 L 69.503906 -4.015625 L 70.253906 -2.761719 L 70.507812 -1.503906 L 71.257812 0.25 Z M 72.765625 0.753906" transform="translate(1394.244 513.547)"/></g></g></g><g clip-path="url(#a)"><path fill="#FAD02C" d="M 987.925781 445.210938 L 1088.496094 445.304688 L 727.816406 247.355469 L 907.320312 417.144531 L 796.609375 416.578125 L 1209.921875 616.355469 Z M 987.925781 445.210938"/></g></svg>